<svg xmlns="http://www.w3.org/2000/svg" width="1200" height="460" viewBox="0 0 1200 460" role="img">
<title>How viajante runs a search</title>
<desc>CLI or MCP into validation, then a fork: sweep is HTTP shopping RPC with no Chromium; detail is paced local Chromium. Both land on ranked offers with raw card text. Hotel defaults and local cookie state sit on the rail below.</desc>

  <defs>
    <linearGradient id="leafTop" x1="0" y1="0" x2="0" y2="1">
      <stop offset="0" stop-color="#262622"/>
      <stop offset="1" stop-color="#161614"/>
    </linearGradient>
    <linearGradient id="leafBot" x1="0" y1="0" x2="0" y2="1">
      <stop offset="0" stop-color="#161614"/>
      <stop offset="1" stop-color="#0E0E0C"/>
    </linearGradient>
    <linearGradient id="chassis" x1="0" y1="0" x2="0" y2="1">
      <stop offset="0" stop-color="#141412"/>
      <stop offset="0.12" stop-color="#0C0C0B"/>
      <stop offset="1" stop-color="#080807"/>
    </linearGradient>
    <linearGradient id="ember" x1="0" y1="0" x2="1" y2="0">
      <stop offset="0" stop-color="#E06A3A"/>
      <stop offset="1" stop-color="#F3D06A"/>
    </linearGradient>
  </defs>

<rect width="1200" height="460" rx="22" fill="#050504"/>
<rect x="18" y="28" width="1164" height="414" rx="14" fill="url(#chassis)" stroke="#1A1A18" stroke-width="1.4"/>
<rect x="26" y="36" width="1148" height="398" rx="8" fill="#090908"/>
<rect x="168" y="0" width="11" height="36" rx="3" fill="#2A2A26"/><rect x="1021" y="0" width="11" height="36" rx="3" fill="#2A2A26"/><circle cx="173.5" cy="32" r="5.5" fill="#3A3A36"/><circle cx="1026.5" cy="32" r="5.5" fill="#3A3A36"/>
<circle cx="38" cy="46" r="3.4" fill="#2A2A26" stroke="#3A3A36" stroke-width="0.7"/><circle cx="38" cy="46" r="1.2" fill="#0C0C0A"/>
<circle cx="1162" cy="46" r="3.4" fill="#2A2A26" stroke="#3A3A36" stroke-width="0.7"/><circle cx="1162" cy="46" r="1.2" fill="#0C0C0A"/>
<circle cx="38" cy="432" r="3.4" fill="#2A2A26" stroke="#3A3A36" stroke-width="0.7"/><circle cx="38" cy="432" r="1.2" fill="#0C0C0A"/>
<circle cx="1162" cy="432" r="3.4" fill="#2A2A26" stroke="#3A3A36" stroke-width="0.7"/><circle cx="1162" cy="432" r="1.2" fill="#0C0C0A"/>
<text x="60.0" y="60.0" fill="#F3D06A" font-family="ui-monospace, SFMono-Regular, Menlo, Consolas, 'Courier New', monospace" font-size="12" font-weight="700" text-anchor="start" letter-spacing="4.6">HOW A SEARCH RUNS</text>
<text x="60.0" y="80.0" fill="#F4EDE0" font-family="ui-monospace, SFMono-Regular, Menlo, Consolas, 'Courier New', monospace" font-size="16" font-weight="500" text-anchor="start">One process. Two lanes. Nothing in parallel.</text>
<g transform="translate(56.0 148.0)">
  <defs><clipPath id="c276"><rect width="18.0" height="28.0" rx="2.5"/></clipPath></defs>
  <rect width="18.0" height="28.0" rx="2.5" fill="#050504"/>
  <rect x="0.7" y="0.7" width="16.6" height="13.3" rx="2.5" fill="url(#leafTop)"/>
  <rect x="0.7" y="14.7" width="16.6" height="13.3" rx="2.5" fill="url(#leafBot)"/>
  <g clip-path="url(#c276)"><text x="9.0" y="14.8" fill="#F3D06A" font-family="ui-monospace, SFMono-Regular, Menlo, Consolas, 'Courier New', monospace" font-size="17.4" font-weight="750" text-anchor="middle" dominant-baseline="middle">Y</text></g>
  <rect x="0" y="13.3" width="18.0" height="1.4" fill="#000000"/>
  <rect x="0" y="13.6" width="18.0" height="0.8" fill="#262622"/>
  
</g>
<g transform="translate(76.0 148.0)">
  <defs><clipPath id="c277"><rect width="18.0" height="28.0" rx="2.5"/></clipPath></defs>
  <rect width="18.0" height="28.0" rx="2.5" fill="#050504"/>
  <rect x="0.7" y="0.7" width="16.6" height="13.3" rx="2.5" fill="url(#leafTop)"/>
  <rect x="0.7" y="14.7" width="16.6" height="13.3" rx="2.5" fill="url(#leafBot)"/>
  <g clip-path="url(#c277)"><text x="9.0" y="14.8" fill="#F3D06A" font-family="ui-monospace, SFMono-Regular, Menlo, Consolas, 'Courier New', monospace" font-size="17.4" font-weight="750" text-anchor="middle" dominant-baseline="middle">O</text></g>
  <rect x="0" y="13.3" width="18.0" height="1.4" fill="#000000"/>
  <rect x="0" y="13.6" width="18.0" height="0.8" fill="#262622"/>
  
</g>
<g transform="translate(96.0 148.0)">
  <defs><clipPath id="c278"><rect width="18.0" height="28.0" rx="2.5"/></clipPath></defs>
  <rect width="18.0" height="28.0" rx="2.5" fill="#050504"/>
  <rect x="0.7" y="0.7" width="16.6" height="13.3" rx="2.5" fill="url(#leafTop)"/>
  <rect x="0.7" y="14.7" width="16.6" height="13.3" rx="2.5" fill="url(#leafBot)"/>
  <g clip-path="url(#c278)"><text x="9.0" y="14.8" fill="#F3D06A" font-family="ui-monospace, SFMono-Regular, Menlo, Consolas, 'Courier New', monospace" font-size="17.4" font-weight="750" text-anchor="middle" dominant-baseline="middle">U</text></g>
  <rect x="0" y="13.3" width="18.0" height="1.4" fill="#000000"/>
  <rect x="0" y="13.6" width="18.0" height="0.8" fill="#262622"/>
  
</g>
<g transform="translate(116.0 148.0)">
  <defs><clipPath id="c279"><rect width="18.0" height="28.0" rx="2.5"/></clipPath></defs>
  <rect width="18.0" height="28.0" rx="2.5" fill="#050504"/>
  <rect x="0.7" y="0.7" width="16.6" height="13.3" rx="2.5" fill="url(#leafTop)"/>
  <rect x="0.7" y="14.7" width="16.6" height="13.3" rx="2.5" fill="url(#leafBot)"/>
  
  <rect x="0" y="13.3" width="18.0" height="1.4" fill="#000000"/>
  <rect x="0" y="13.6" width="18.0" height="0.8" fill="#262622"/>
  
</g>
<g transform="translate(136.0 148.0)">
  <defs><clipPath id="c280"><rect width="18.0" height="28.0" rx="2.5"/></clipPath></defs>
  <rect width="18.0" height="28.0" rx="2.5" fill="#050504"/>
  <rect x="0.7" y="0.7" width="16.6" height="13.3" rx="2.5" fill="url(#leafTop)"/>
  <rect x="0.7" y="14.7" width="16.6" height="13.3" rx="2.5" fill="url(#leafBot)"/>
  <g clip-path="url(#c280)"><text x="9.0" y="14.8" fill="#F3D06A" font-family="ui-monospace, SFMono-Regular, Menlo, Consolas, 'Courier New', monospace" font-size="17.4" font-weight="750" text-anchor="middle" dominant-baseline="middle">A</text></g>
  <rect x="0" y="13.3" width="18.0" height="1.4" fill="#000000"/>
  <rect x="0" y="13.6" width="18.0" height="0.8" fill="#262622"/>
  
</g>
<g transform="translate(156.0 148.0)">
  <defs><clipPath id="c281"><rect width="18.0" height="28.0" rx="2.5"/></clipPath></defs>
  <rect width="18.0" height="28.0" rx="2.5" fill="#050504"/>
  <rect x="0.7" y="0.7" width="16.6" height="13.3" rx="2.5" fill="url(#leafTop)"/>
  <rect x="0.7" y="14.7" width="16.6" height="13.3" rx="2.5" fill="url(#leafBot)"/>
  <g clip-path="url(#c281)"><text x="9.0" y="14.8" fill="#F3D06A" font-family="ui-monospace, SFMono-Regular, Menlo, Consolas, 'Courier New', monospace" font-size="17.4" font-weight="750" text-anchor="middle" dominant-baseline="middle">G</text></g>
  <rect x="0" y="13.3" width="18.0" height="1.4" fill="#000000"/>
  <rect x="0" y="13.6" width="18.0" height="0.8" fill="#262622"/>
  
</g>
<g transform="translate(176.0 148.0)">
  <defs><clipPath id="c282"><rect width="18.0" height="28.0" rx="2.5"/></clipPath></defs>
  <rect width="18.0" height="28.0" rx="2.5" fill="#050504"/>
  <rect x="0.7" y="0.7" width="16.6" height="13.3" rx="2.5" fill="url(#leafTop)"/>
  <rect x="0.7" y="14.7" width="16.6" height="13.3" rx="2.5" fill="url(#leafBot)"/>
  <g clip-path="url(#c282)"><text x="9.0" y="14.8" fill="#F3D06A" font-family="ui-monospace, SFMono-Regular, Menlo, Consolas, 'Courier New', monospace" font-size="17.4" font-weight="750" text-anchor="middle" dominant-baseline="middle">E</text></g>
  <rect x="0" y="13.3" width="18.0" height="1.4" fill="#000000"/>
  <rect x="0" y="13.6" width="18.0" height="0.8" fill="#262622"/>
  
</g>
<g transform="translate(196.0 148.0)">
  <defs><clipPath id="c283"><rect width="18.0" height="28.0" rx="2.5"/></clipPath></defs>
  <rect width="18.0" height="28.0" rx="2.5" fill="#050504"/>
  <rect x="0.7" y="0.7" width="16.6" height="13.3" rx="2.5" fill="url(#leafTop)"/>
  <rect x="0.7" y="14.7" width="16.6" height="13.3" rx="2.5" fill="url(#leafBot)"/>
  <g clip-path="url(#c283)"><text x="9.0" y="14.8" fill="#F3D06A" font-family="ui-monospace, SFMono-Regular, Menlo, Consolas, 'Courier New', monospace" font-size="17.4" font-weight="750" text-anchor="middle" dominant-baseline="middle">N</text></g>
  <rect x="0" y="13.3" width="18.0" height="1.4" fill="#000000"/>
  <rect x="0" y="13.6" width="18.0" height="0.8" fill="#262622"/>
  
</g>
<g transform="translate(216.0 148.0)">
  <defs><clipPath id="c284"><rect width="18.0" height="28.0" rx="2.5"/></clipPath></defs>
  <rect width="18.0" height="28.0" rx="2.5" fill="#050504"/>
  <rect x="0.7" y="0.7" width="16.6" height="13.3" rx="2.5" fill="url(#leafTop)"/>
  <rect x="0.7" y="14.7" width="16.6" height="13.3" rx="2.5" fill="url(#leafBot)"/>
  <g clip-path="url(#c284)"><text x="9.0" y="14.8" fill="#F3D06A" font-family="ui-monospace, SFMono-Regular, Menlo, Consolas, 'Courier New', monospace" font-size="17.4" font-weight="750" text-anchor="middle" dominant-baseline="middle">T</text></g>
  <rect x="0" y="13.3" width="18.0" height="1.4" fill="#000000"/>
  <rect x="0" y="13.6" width="18.0" height="0.8" fill="#262622"/>
  
</g>
<text x="56.0" y="194.0" fill="#F4EDE0" font-family="ui-monospace, SFMono-Regular, Menlo, Consolas, 'Courier New', monospace" font-size="10" font-weight="700" text-anchor="start" letter-spacing="1.6">YOU / AGENT</text>
<text x="56.0" y="210.0" fill="#8A8070" font-family="ui-monospace, SFMono-Regular, Menlo, Consolas, 'Courier New', monospace" font-size="11" font-weight="500" text-anchor="start">CLI or stdio MCP</text>
<g transform="translate(280.0 148.0)">
  <defs><clipPath id="c285"><rect width="18.0" height="28.0" rx="2.5"/></clipPath></defs>
  <rect width="18.0" height="28.0" rx="2.5" fill="#050504"/>
  <rect x="0.7" y="0.7" width="16.6" height="13.3" rx="2.5" fill="url(#leafTop)"/>
  <rect x="0.7" y="14.7" width="16.6" height="13.3" rx="2.5" fill="url(#leafBot)"/>
  <g clip-path="url(#c285)"><text x="9.0" y="14.8" fill="#F3D06A" font-family="ui-monospace, SFMono-Regular, Menlo, Consolas, 'Courier New', monospace" font-size="17.4" font-weight="750" text-anchor="middle" dominant-baseline="middle">V</text></g>
  <rect x="0" y="13.3" width="18.0" height="1.4" fill="#000000"/>
  <rect x="0" y="13.6" width="18.0" height="0.8" fill="#262622"/>
  
</g>
<g transform="translate(300.0 148.0)">
  <defs><clipPath id="c286"><rect width="18.0" height="28.0" rx="2.5"/></clipPath></defs>
  <rect width="18.0" height="28.0" rx="2.5" fill="#050504"/>
  <rect x="0.7" y="0.7" width="16.6" height="13.3" rx="2.5" fill="url(#leafTop)"/>
  <rect x="0.7" y="14.7" width="16.6" height="13.3" rx="2.5" fill="url(#leafBot)"/>
  <g clip-path="url(#c286)"><text x="9.0" y="14.8" fill="#F3D06A" font-family="ui-monospace, SFMono-Regular, Menlo, Consolas, 'Courier New', monospace" font-size="17.4" font-weight="750" text-anchor="middle" dominant-baseline="middle">A</text></g>
  <rect x="0" y="13.3" width="18.0" height="1.4" fill="#000000"/>
  <rect x="0" y="13.6" width="18.0" height="0.8" fill="#262622"/>
  
</g>
<g transform="translate(320.0 148.0)">
  <defs><clipPath id="c287"><rect width="18.0" height="28.0" rx="2.5"/></clipPath></defs>
  <rect width="18.0" height="28.0" rx="2.5" fill="#050504"/>
  <rect x="0.7" y="0.7" width="16.6" height="13.3" rx="2.5" fill="url(#leafTop)"/>
  <rect x="0.7" y="14.7" width="16.6" height="13.3" rx="2.5" fill="url(#leafBot)"/>
  <g clip-path="url(#c287)"><text x="9.0" y="14.8" fill="#F3D06A" font-family="ui-monospace, SFMono-Regular, Menlo, Consolas, 'Courier New', monospace" font-size="17.4" font-weight="750" text-anchor="middle" dominant-baseline="middle">L</text></g>
  <rect x="0" y="13.3" width="18.0" height="1.4" fill="#000000"/>
  <rect x="0" y="13.6" width="18.0" height="0.8" fill="#262622"/>
  
</g>
<g transform="translate(340.0 148.0)">
  <defs><clipPath id="c288"><rect width="18.0" height="28.0" rx="2.5"/></clipPath></defs>
  <rect width="18.0" height="28.0" rx="2.5" fill="#050504"/>
  <rect x="0.7" y="0.7" width="16.6" height="13.3" rx="2.5" fill="url(#leafTop)"/>
  <rect x="0.7" y="14.7" width="16.6" height="13.3" rx="2.5" fill="url(#leafBot)"/>
  <g clip-path="url(#c288)"><text x="9.0" y="14.8" fill="#F3D06A" font-family="ui-monospace, SFMono-Regular, Menlo, Consolas, 'Courier New', monospace" font-size="17.4" font-weight="750" text-anchor="middle" dominant-baseline="middle">I</text></g>
  <rect x="0" y="13.3" width="18.0" height="1.4" fill="#000000"/>
  <rect x="0" y="13.6" width="18.0" height="0.8" fill="#262622"/>
  
</g>
<g transform="translate(360.0 148.0)">
  <defs><clipPath id="c289"><rect width="18.0" height="28.0" rx="2.5"/></clipPath></defs>
  <rect width="18.0" height="28.0" rx="2.5" fill="#050504"/>
  <rect x="0.7" y="0.7" width="16.6" height="13.3" rx="2.5" fill="url(#leafTop)"/>
  <rect x="0.7" y="14.7" width="16.6" height="13.3" rx="2.5" fill="url(#leafBot)"/>
  <g clip-path="url(#c289)"><text x="9.0" y="14.8" fill="#F3D06A" font-family="ui-monospace, SFMono-Regular, Menlo, Consolas, 'Courier New', monospace" font-size="17.4" font-weight="750" text-anchor="middle" dominant-baseline="middle">D</text></g>
  <rect x="0" y="13.3" width="18.0" height="1.4" fill="#000000"/>
  <rect x="0" y="13.6" width="18.0" height="0.8" fill="#262622"/>
  
</g>
<g transform="translate(380.0 148.0)">
  <defs><clipPath id="c290"><rect width="18.0" height="28.0" rx="2.5"/></clipPath></defs>
  <rect width="18.0" height="28.0" rx="2.5" fill="#050504"/>
  <rect x="0.7" y="0.7" width="16.6" height="13.3" rx="2.5" fill="url(#leafTop)"/>
  <rect x="0.7" y="14.7" width="16.6" height="13.3" rx="2.5" fill="url(#leafBot)"/>
  <g clip-path="url(#c290)"><text x="9.0" y="14.8" fill="#F3D06A" font-family="ui-monospace, SFMono-Regular, Menlo, Consolas, 'Courier New', monospace" font-size="17.4" font-weight="750" text-anchor="middle" dominant-baseline="middle">A</text></g>
  <rect x="0" y="13.3" width="18.0" height="1.4" fill="#000000"/>
  <rect x="0" y="13.6" width="18.0" height="0.8" fill="#262622"/>
  
</g>
<g transform="translate(400.0 148.0)">
  <defs><clipPath id="c291"><rect width="18.0" height="28.0" rx="2.5"/></clipPath></defs>
  <rect width="18.0" height="28.0" rx="2.5" fill="#050504"/>
  <rect x="0.7" y="0.7" width="16.6" height="13.3" rx="2.5" fill="url(#leafTop)"/>
  <rect x="0.7" y="14.7" width="16.6" height="13.3" rx="2.5" fill="url(#leafBot)"/>
  <g clip-path="url(#c291)"><text x="9.0" y="14.8" fill="#F3D06A" font-family="ui-monospace, SFMono-Regular, Menlo, Consolas, 'Courier New', monospace" font-size="17.4" font-weight="750" text-anchor="middle" dominant-baseline="middle">T</text></g>
  <rect x="0" y="13.3" width="18.0" height="1.4" fill="#000000"/>
  <rect x="0" y="13.6" width="18.0" height="0.8" fill="#262622"/>
  
</g>
<g transform="translate(420.0 148.0)">
  <defs><clipPath id="c292"><rect width="18.0" height="28.0" rx="2.5"/></clipPath></defs>
  <rect width="18.0" height="28.0" rx="2.5" fill="#050504"/>
  <rect x="0.7" y="0.7" width="16.6" height="13.3" rx="2.5" fill="url(#leafTop)"/>
  <rect x="0.7" y="14.7" width="16.6" height="13.3" rx="2.5" fill="url(#leafBot)"/>
  <g clip-path="url(#c292)"><text x="9.0" y="14.8" fill="#F3D06A" font-family="ui-monospace, SFMono-Regular, Menlo, Consolas, 'Courier New', monospace" font-size="17.4" font-weight="750" text-anchor="middle" dominant-baseline="middle">E</text></g>
  <rect x="0" y="13.3" width="18.0" height="1.4" fill="#000000"/>
  <rect x="0" y="13.6" width="18.0" height="0.8" fill="#262622"/>
  
</g>
<text x="280.0" y="194.0" fill="#F4EDE0" font-family="ui-monospace, SFMono-Regular, Menlo, Consolas, 'Courier New', monospace" font-size="10" font-weight="700" text-anchor="start" letter-spacing="1.6">VALIDATE</text>
<text x="280.0" y="210.0" fill="#8A8070" font-family="ui-monospace, SFMono-Regular, Menlo, Consolas, 'Courier New', monospace" font-size="11" font-weight="500" text-anchor="start">IATA · dates · no Chromium yet</text>
<g transform="translate(504.0 148.0)">
  <defs><clipPath id="c293"><rect width="18.0" height="28.0" rx="2.5"/></clipPath></defs>
  <rect width="18.0" height="28.0" rx="2.5" fill="#050504"/>
  <rect x="0.7" y="0.7" width="16.6" height="13.3" rx="2.5" fill="url(#leafTop)"/>
  <rect x="0.7" y="14.7" width="16.6" height="13.3" rx="2.5" fill="url(#leafBot)"/>
  <g clip-path="url(#c293)"><text x="9.0" y="14.8" fill="#F3D06A" font-family="ui-monospace, SFMono-Regular, Menlo, Consolas, 'Courier New', monospace" font-size="17.4" font-weight="750" text-anchor="middle" dominant-baseline="middle">P</text></g>
  <rect x="0" y="13.3" width="18.0" height="1.4" fill="#000000"/>
  <rect x="0" y="13.6" width="18.0" height="0.8" fill="#262622"/>
  
</g>
<g transform="translate(524.0 148.0)">
  <defs><clipPath id="c294"><rect width="18.0" height="28.0" rx="2.5"/></clipPath></defs>
  <rect width="18.0" height="28.0" rx="2.5" fill="#050504"/>
  <rect x="0.7" y="0.7" width="16.6" height="13.3" rx="2.5" fill="url(#leafTop)"/>
  <rect x="0.7" y="14.7" width="16.6" height="13.3" rx="2.5" fill="url(#leafBot)"/>
  <g clip-path="url(#c294)"><text x="9.0" y="14.8" fill="#F3D06A" font-family="ui-monospace, SFMono-Regular, Menlo, Consolas, 'Courier New', monospace" font-size="17.4" font-weight="750" text-anchor="middle" dominant-baseline="middle">I</text></g>
  <rect x="0" y="13.3" width="18.0" height="1.4" fill="#000000"/>
  <rect x="0" y="13.6" width="18.0" height="0.8" fill="#262622"/>
  
</g>
<g transform="translate(544.0 148.0)">
  <defs><clipPath id="c295"><rect width="18.0" height="28.0" rx="2.5"/></clipPath></defs>
  <rect width="18.0" height="28.0" rx="2.5" fill="#050504"/>
  <rect x="0.7" y="0.7" width="16.6" height="13.3" rx="2.5" fill="url(#leafTop)"/>
  <rect x="0.7" y="14.7" width="16.6" height="13.3" rx="2.5" fill="url(#leafBot)"/>
  <g clip-path="url(#c295)"><text x="9.0" y="14.8" fill="#F3D06A" font-family="ui-monospace, SFMono-Regular, Menlo, Consolas, 'Courier New', monospace" font-size="17.4" font-weight="750" text-anchor="middle" dominant-baseline="middle">C</text></g>
  <rect x="0" y="13.3" width="18.0" height="1.4" fill="#000000"/>
  <rect x="0" y="13.6" width="18.0" height="0.8" fill="#262622"/>
  
</g>
<g transform="translate(564.0 148.0)">
  <defs><clipPath id="c296"><rect width="18.0" height="28.0" rx="2.5"/></clipPath></defs>
  <rect width="18.0" height="28.0" rx="2.5" fill="#050504"/>
  <rect x="0.7" y="0.7" width="16.6" height="13.3" rx="2.5" fill="url(#leafTop)"/>
  <rect x="0.7" y="14.7" width="16.6" height="13.3" rx="2.5" fill="url(#leafBot)"/>
  <g clip-path="url(#c296)"><text x="9.0" y="14.8" fill="#F3D06A" font-family="ui-monospace, SFMono-Regular, Menlo, Consolas, 'Courier New', monospace" font-size="17.4" font-weight="750" text-anchor="middle" dominant-baseline="middle">K</text></g>
  <rect x="0" y="13.3" width="18.0" height="1.4" fill="#000000"/>
  <rect x="0" y="13.6" width="18.0" height="0.8" fill="#262622"/>
  
</g>
<g transform="translate(584.0 148.0)">
  <defs><clipPath id="c297"><rect width="18.0" height="28.0" rx="2.5"/></clipPath></defs>
  <rect width="18.0" height="28.0" rx="2.5" fill="#050504"/>
  <rect x="0.7" y="0.7" width="16.6" height="13.3" rx="2.5" fill="url(#leafTop)"/>
  <rect x="0.7" y="14.7" width="16.6" height="13.3" rx="2.5" fill="url(#leafBot)"/>
  
  <rect x="0" y="13.3" width="18.0" height="1.4" fill="#000000"/>
  <rect x="0" y="13.6" width="18.0" height="0.8" fill="#262622"/>
  
</g>
<g transform="translate(604.0 148.0)">
  <defs><clipPath id="c298"><rect width="18.0" height="28.0" rx="2.5"/></clipPath></defs>
  <rect width="18.0" height="28.0" rx="2.5" fill="#050504"/>
  <rect x="0.7" y="0.7" width="16.6" height="13.3" rx="2.5" fill="url(#leafTop)"/>
  <rect x="0.7" y="14.7" width="16.6" height="13.3" rx="2.5" fill="url(#leafBot)"/>
  <g clip-path="url(#c298)"><text x="9.0" y="14.8" fill="#F3D06A" font-family="ui-monospace, SFMono-Regular, Menlo, Consolas, 'Courier New', monospace" font-size="17.4" font-weight="750" text-anchor="middle" dominant-baseline="middle">L</text></g>
  <rect x="0" y="13.3" width="18.0" height="1.4" fill="#000000"/>
  <rect x="0" y="13.6" width="18.0" height="0.8" fill="#262622"/>
  
</g>
<g transform="translate(624.0 148.0)">
  <defs><clipPath id="c299"><rect width="18.0" height="28.0" rx="2.5"/></clipPath></defs>
  <rect width="18.0" height="28.0" rx="2.5" fill="#050504"/>
  <rect x="0.7" y="0.7" width="16.6" height="13.3" rx="2.5" fill="url(#leafTop)"/>
  <rect x="0.7" y="14.7" width="16.6" height="13.3" rx="2.5" fill="url(#leafBot)"/>
  <g clip-path="url(#c299)"><text x="9.0" y="14.8" fill="#F3D06A" font-family="ui-monospace, SFMono-Regular, Menlo, Consolas, 'Courier New', monospace" font-size="17.4" font-weight="750" text-anchor="middle" dominant-baseline="middle">A</text></g>
  <rect x="0" y="13.3" width="18.0" height="1.4" fill="#000000"/>
  <rect x="0" y="13.6" width="18.0" height="0.8" fill="#262622"/>
  
</g>
<g transform="translate(644.0 148.0)">
  <defs><clipPath id="c300"><rect width="18.0" height="28.0" rx="2.5"/></clipPath></defs>
  <rect width="18.0" height="28.0" rx="2.5" fill="#050504"/>
  <rect x="0.7" y="0.7" width="16.6" height="13.3" rx="2.5" fill="url(#leafTop)"/>
  <rect x="0.7" y="14.7" width="16.6" height="13.3" rx="2.5" fill="url(#leafBot)"/>
  <g clip-path="url(#c300)"><text x="9.0" y="14.8" fill="#F3D06A" font-family="ui-monospace, SFMono-Regular, Menlo, Consolas, 'Courier New', monospace" font-size="17.4" font-weight="750" text-anchor="middle" dominant-baseline="middle">N</text></g>
  <rect x="0" y="13.3" width="18.0" height="1.4" fill="#000000"/>
  <rect x="0" y="13.6" width="18.0" height="0.8" fill="#262622"/>
  
</g>
<g transform="translate(664.0 148.0)">
  <defs><clipPath id="c301"><rect width="18.0" height="28.0" rx="2.5"/></clipPath></defs>
  <rect width="18.0" height="28.0" rx="2.5" fill="#050504"/>
  <rect x="0.7" y="0.7" width="16.6" height="13.3" rx="2.5" fill="url(#leafTop)"/>
  <rect x="0.7" y="14.7" width="16.6" height="13.3" rx="2.5" fill="url(#leafBot)"/>
  <g clip-path="url(#c301)"><text x="9.0" y="14.8" fill="#F3D06A" font-family="ui-monospace, SFMono-Regular, Menlo, Consolas, 'Courier New', monospace" font-size="17.4" font-weight="750" text-anchor="middle" dominant-baseline="middle">E</text></g>
  <rect x="0" y="13.3" width="18.0" height="1.4" fill="#000000"/>
  <rect x="0" y="13.6" width="18.0" height="0.8" fill="#262622"/>
  
</g>
<text x="504.0" y="194.0" fill="#F4EDE0" font-family="ui-monospace, SFMono-Regular, Menlo, Consolas, 'Courier New', monospace" font-size="10" font-weight="700" text-anchor="start" letter-spacing="1.6">PICK A LANE</text>
<text x="504.0" y="210.0" fill="#8A8070" font-family="ui-monospace, SFMono-Regular, Menlo, Consolas, 'Courier New', monospace" font-size="11" font-weight="500" text-anchor="start">auto: sweep if 3+ queries</text>
<g transform="translate(728.0 108.0)">
  <defs><clipPath id="c302"><rect width="18.0" height="28.0" rx="2.5"/></clipPath></defs>
  <rect width="18.0" height="28.0" rx="2.5" fill="#050504"/>
  <rect x="0.7" y="0.7" width="16.6" height="13.3" rx="2.5" fill="url(#leafTop)"/>
  <rect x="0.7" y="14.7" width="16.6" height="13.3" rx="2.5" fill="url(#leafBot)"/>
  <g clip-path="url(#c302)"><text x="9.0" y="14.8" fill="#7EE0D0" font-family="ui-monospace, SFMono-Regular, Menlo, Consolas, 'Courier New', monospace" font-size="17.4" font-weight="750" text-anchor="middle" dominant-baseline="middle">S</text></g>
  <rect x="0" y="13.3" width="18.0" height="1.4" fill="#000000"/>
  <rect x="0" y="13.6" width="18.0" height="0.8" fill="#262622"/>
  
</g>
<g transform="translate(748.0 108.0)">
  <defs><clipPath id="c303"><rect width="18.0" height="28.0" rx="2.5"/></clipPath></defs>
  <rect width="18.0" height="28.0" rx="2.5" fill="#050504"/>
  <rect x="0.7" y="0.7" width="16.6" height="13.3" rx="2.5" fill="url(#leafTop)"/>
  <rect x="0.7" y="14.7" width="16.6" height="13.3" rx="2.5" fill="url(#leafBot)"/>
  <g clip-path="url(#c303)"><text x="9.0" y="14.8" fill="#7EE0D0" font-family="ui-monospace, SFMono-Regular, Menlo, Consolas, 'Courier New', monospace" font-size="17.4" font-weight="750" text-anchor="middle" dominant-baseline="middle">W</text></g>
  <rect x="0" y="13.3" width="18.0" height="1.4" fill="#000000"/>
  <rect x="0" y="13.6" width="18.0" height="0.8" fill="#262622"/>
  
</g>
<g transform="translate(768.0 108.0)">
  <defs><clipPath id="c304"><rect width="18.0" height="28.0" rx="2.5"/></clipPath></defs>
  <rect width="18.0" height="28.0" rx="2.5" fill="#050504"/>
  <rect x="0.7" y="0.7" width="16.6" height="13.3" rx="2.5" fill="url(#leafTop)"/>
  <rect x="0.7" y="14.7" width="16.6" height="13.3" rx="2.5" fill="url(#leafBot)"/>
  <g clip-path="url(#c304)"><text x="9.0" y="14.8" fill="#7EE0D0" font-family="ui-monospace, SFMono-Regular, Menlo, Consolas, 'Courier New', monospace" font-size="17.4" font-weight="750" text-anchor="middle" dominant-baseline="middle">E</text></g>
  <rect x="0" y="13.3" width="18.0" height="1.4" fill="#000000"/>
  <rect x="0" y="13.6" width="18.0" height="0.8" fill="#262622"/>
  
</g>
<g transform="translate(788.0 108.0)">
  <defs><clipPath id="c305"><rect width="18.0" height="28.0" rx="2.5"/></clipPath></defs>
  <rect width="18.0" height="28.0" rx="2.5" fill="#050504"/>
  <rect x="0.7" y="0.7" width="16.6" height="13.3" rx="2.5" fill="url(#leafTop)"/>
  <rect x="0.7" y="14.7" width="16.6" height="13.3" rx="2.5" fill="url(#leafBot)"/>
  <g clip-path="url(#c305)"><text x="9.0" y="14.8" fill="#7EE0D0" font-family="ui-monospace, SFMono-Regular, Menlo, Consolas, 'Courier New', monospace" font-size="17.4" font-weight="750" text-anchor="middle" dominant-baseline="middle">E</text></g>
  <rect x="0" y="13.3" width="18.0" height="1.4" fill="#000000"/>
  <rect x="0" y="13.6" width="18.0" height="0.8" fill="#262622"/>
  
</g>
<g transform="translate(808.0 108.0)">
  <defs><clipPath id="c306"><rect width="18.0" height="28.0" rx="2.5"/></clipPath></defs>
  <rect width="18.0" height="28.0" rx="2.5" fill="#050504"/>
  <rect x="0.7" y="0.7" width="16.6" height="13.3" rx="2.5" fill="url(#leafTop)"/>
  <rect x="0.7" y="14.7" width="16.6" height="13.3" rx="2.5" fill="url(#leafBot)"/>
  <g clip-path="url(#c306)"><text x="9.0" y="14.8" fill="#7EE0D0" font-family="ui-monospace, SFMono-Regular, Menlo, Consolas, 'Courier New', monospace" font-size="17.4" font-weight="750" text-anchor="middle" dominant-baseline="middle">P</text></g>
  <rect x="0" y="13.3" width="18.0" height="1.4" fill="#000000"/>
  <rect x="0" y="13.6" width="18.0" height="0.8" fill="#262622"/>
  
</g>
<text x="728.0" y="154.0" fill="#7EE0D0" font-family="ui-monospace, SFMono-Regular, Menlo, Consolas, 'Courier New', monospace" font-size="10" font-weight="700" text-anchor="start" letter-spacing="1.6">SWEEP</text>
<text x="728.0" y="170.0" fill="#8A8070" font-family="ui-monospace, SFMono-Regular, Menlo, Consolas, 'Courier New', monospace" font-size="11" font-weight="500" text-anchor="start">HTTP shopping RPC</text>
<g transform="translate(728.0 188.0)">
  <defs><clipPath id="c307"><rect width="18.0" height="28.0" rx="2.5"/></clipPath></defs>
  <rect width="18.0" height="28.0" rx="2.5" fill="#050504"/>
  <rect x="0.7" y="0.7" width="16.6" height="13.3" rx="2.5" fill="url(#leafTop)"/>
  <rect x="0.7" y="14.7" width="16.6" height="13.3" rx="2.5" fill="url(#leafBot)"/>
  <g clip-path="url(#c307)"><text x="9.0" y="14.8" fill="#E06A3A" font-family="ui-monospace, SFMono-Regular, Menlo, Consolas, 'Courier New', monospace" font-size="17.4" font-weight="750" text-anchor="middle" dominant-baseline="middle">D</text></g>
  <rect x="0" y="13.3" width="18.0" height="1.4" fill="#000000"/>
  <rect x="0" y="13.6" width="18.0" height="0.8" fill="#262622"/>
  
</g>
<g transform="translate(748.0 188.0)">
  <defs><clipPath id="c308"><rect width="18.0" height="28.0" rx="2.5"/></clipPath></defs>
  <rect width="18.0" height="28.0" rx="2.5" fill="#050504"/>
  <rect x="0.7" y="0.7" width="16.6" height="13.3" rx="2.5" fill="url(#leafTop)"/>
  <rect x="0.7" y="14.7" width="16.6" height="13.3" rx="2.5" fill="url(#leafBot)"/>
  <g clip-path="url(#c308)"><text x="9.0" y="14.8" fill="#E06A3A" font-family="ui-monospace, SFMono-Regular, Menlo, Consolas, 'Courier New', monospace" font-size="17.4" font-weight="750" text-anchor="middle" dominant-baseline="middle">E</text></g>
  <rect x="0" y="13.3" width="18.0" height="1.4" fill="#000000"/>
  <rect x="0" y="13.6" width="18.0" height="0.8" fill="#262622"/>
  
</g>
<g transform="translate(768.0 188.0)">
  <defs><clipPath id="c309"><rect width="18.0" height="28.0" rx="2.5"/></clipPath></defs>
  <rect width="18.0" height="28.0" rx="2.5" fill="#050504"/>
  <rect x="0.7" y="0.7" width="16.6" height="13.3" rx="2.5" fill="url(#leafTop)"/>
  <rect x="0.7" y="14.7" width="16.6" height="13.3" rx="2.5" fill="url(#leafBot)"/>
  <g clip-path="url(#c309)"><text x="9.0" y="14.8" fill="#E06A3A" font-family="ui-monospace, SFMono-Regular, Menlo, Consolas, 'Courier New', monospace" font-size="17.4" font-weight="750" text-anchor="middle" dominant-baseline="middle">T</text></g>
  <rect x="0" y="13.3" width="18.0" height="1.4" fill="#000000"/>
  <rect x="0" y="13.6" width="18.0" height="0.8" fill="#262622"/>
  
</g>
<g transform="translate(788.0 188.0)">
  <defs><clipPath id="c310"><rect width="18.0" height="28.0" rx="2.5"/></clipPath></defs>
  <rect width="18.0" height="28.0" rx="2.5" fill="#050504"/>
  <rect x="0.7" y="0.7" width="16.6" height="13.3" rx="2.5" fill="url(#leafTop)"/>
  <rect x="0.7" y="14.7" width="16.6" height="13.3" rx="2.5" fill="url(#leafBot)"/>
  <g clip-path="url(#c310)"><text x="9.0" y="14.8" fill="#E06A3A" font-family="ui-monospace, SFMono-Regular, Menlo, Consolas, 'Courier New', monospace" font-size="17.4" font-weight="750" text-anchor="middle" dominant-baseline="middle">A</text></g>
  <rect x="0" y="13.3" width="18.0" height="1.4" fill="#000000"/>
  <rect x="0" y="13.6" width="18.0" height="0.8" fill="#262622"/>
  
</g>
<g transform="translate(808.0 188.0)">
  <defs><clipPath id="c311"><rect width="18.0" height="28.0" rx="2.5"/></clipPath></defs>
  <rect width="18.0" height="28.0" rx="2.5" fill="#050504"/>
  <rect x="0.7" y="0.7" width="16.6" height="13.3" rx="2.5" fill="url(#leafTop)"/>
  <rect x="0.7" y="14.7" width="16.6" height="13.3" rx="2.5" fill="url(#leafBot)"/>
  <g clip-path="url(#c311)"><text x="9.0" y="14.8" fill="#E06A3A" font-family="ui-monospace, SFMono-Regular, Menlo, Consolas, 'Courier New', monospace" font-size="17.4" font-weight="750" text-anchor="middle" dominant-baseline="middle">I</text></g>
  <rect x="0" y="13.3" width="18.0" height="1.4" fill="#000000"/>
  <rect x="0" y="13.6" width="18.0" height="0.8" fill="#262622"/>
  
</g>
<g transform="translate(828.0 188.0)">
  <defs><clipPath id="c312"><rect width="18.0" height="28.0" rx="2.5"/></clipPath></defs>
  <rect width="18.0" height="28.0" rx="2.5" fill="#050504"/>
  <rect x="0.7" y="0.7" width="16.6" height="13.3" rx="2.5" fill="url(#leafTop)"/>
  <rect x="0.7" y="14.7" width="16.6" height="13.3" rx="2.5" fill="url(#leafBot)"/>
  <g clip-path="url(#c312)"><text x="9.0" y="14.8" fill="#E06A3A" font-family="ui-monospace, SFMono-Regular, Menlo, Consolas, 'Courier New', monospace" font-size="17.4" font-weight="750" text-anchor="middle" dominant-baseline="middle">L</text></g>
  <rect x="0" y="13.3" width="18.0" height="1.4" fill="#000000"/>
  <rect x="0" y="13.6" width="18.0" height="0.8" fill="#262622"/>
  
</g>
<text x="728.0" y="234.0" fill="#E06A3A" font-family="ui-monospace, SFMono-Regular, Menlo, Consolas, 'Courier New', monospace" font-size="10" font-weight="700" text-anchor="start" letter-spacing="1.6">DETAIL</text>
<text x="728.0" y="250.0" fill="#8A8070" font-family="ui-monospace, SFMono-Regular, Menlo, Consolas, 'Courier New', monospace" font-size="11" font-weight="500" text-anchor="start">Chromium · 4.5 s pace</text>
<g transform="translate(968.0 148.0)">
  <defs><clipPath id="c313"><rect width="18.0" height="28.0" rx="2.5"/></clipPath></defs>
  <rect width="18.0" height="28.0" rx="2.5" fill="#050504"/>
  <rect x="0.7" y="0.7" width="16.6" height="13.3" rx="2.5" fill="url(#leafTop)"/>
  <rect x="0.7" y="14.7" width="16.6" height="13.3" rx="2.5" fill="url(#leafBot)"/>
  <g clip-path="url(#c313)"><text x="9.0" y="14.8" fill="#F3D06A" font-family="ui-monospace, SFMono-Regular, Menlo, Consolas, 'Courier New', monospace" font-size="17.4" font-weight="750" text-anchor="middle" dominant-baseline="middle">E</text></g>
  <rect x="0" y="13.3" width="18.0" height="1.4" fill="#000000"/>
  <rect x="0" y="13.6" width="18.0" height="0.8" fill="#262622"/>
  
</g>
<g transform="translate(988.0 148.0)">
  <defs><clipPath id="c314"><rect width="18.0" height="28.0" rx="2.5"/></clipPath></defs>
  <rect width="18.0" height="28.0" rx="2.5" fill="#050504"/>
  <rect x="0.7" y="0.7" width="16.6" height="13.3" rx="2.5" fill="url(#leafTop)"/>
  <rect x="0.7" y="14.7" width="16.6" height="13.3" rx="2.5" fill="url(#leafBot)"/>
  <g clip-path="url(#c314)"><text x="9.0" y="14.8" fill="#F3D06A" font-family="ui-monospace, SFMono-Regular, Menlo, Consolas, 'Courier New', monospace" font-size="17.4" font-weight="750" text-anchor="middle" dominant-baseline="middle">V</text></g>
  <rect x="0" y="13.3" width="18.0" height="1.4" fill="#000000"/>
  <rect x="0" y="13.6" width="18.0" height="0.8" fill="#262622"/>
  
</g>
<g transform="translate(1008.0 148.0)">
  <defs><clipPath id="c315"><rect width="18.0" height="28.0" rx="2.5"/></clipPath></defs>
  <rect width="18.0" height="28.0" rx="2.5" fill="#050504"/>
  <rect x="0.7" y="0.7" width="16.6" height="13.3" rx="2.5" fill="url(#leafTop)"/>
  <rect x="0.7" y="14.7" width="16.6" height="13.3" rx="2.5" fill="url(#leafBot)"/>
  <g clip-path="url(#c315)"><text x="9.0" y="14.8" fill="#F3D06A" font-family="ui-monospace, SFMono-Regular, Menlo, Consolas, 'Courier New', monospace" font-size="17.4" font-weight="750" text-anchor="middle" dominant-baseline="middle">I</text></g>
  <rect x="0" y="13.3" width="18.0" height="1.4" fill="#000000"/>
  <rect x="0" y="13.6" width="18.0" height="0.8" fill="#262622"/>
  
</g>
<g transform="translate(1028.0 148.0)">
  <defs><clipPath id="c316"><rect width="18.0" height="28.0" rx="2.5"/></clipPath></defs>
  <rect width="18.0" height="28.0" rx="2.5" fill="#050504"/>
  <rect x="0.7" y="0.7" width="16.6" height="13.3" rx="2.5" fill="url(#leafTop)"/>
  <rect x="0.7" y="14.7" width="16.6" height="13.3" rx="2.5" fill="url(#leafBot)"/>
  <g clip-path="url(#c316)"><text x="9.0" y="14.8" fill="#F3D06A" font-family="ui-monospace, SFMono-Regular, Menlo, Consolas, 'Courier New', monospace" font-size="17.4" font-weight="750" text-anchor="middle" dominant-baseline="middle">D</text></g>
  <rect x="0" y="13.3" width="18.0" height="1.4" fill="#000000"/>
  <rect x="0" y="13.6" width="18.0" height="0.8" fill="#262622"/>
  
</g>
<g transform="translate(1048.0 148.0)">
  <defs><clipPath id="c317"><rect width="18.0" height="28.0" rx="2.5"/></clipPath></defs>
  <rect width="18.0" height="28.0" rx="2.5" fill="#050504"/>
  <rect x="0.7" y="0.7" width="16.6" height="13.3" rx="2.5" fill="url(#leafTop)"/>
  <rect x="0.7" y="14.7" width="16.6" height="13.3" rx="2.5" fill="url(#leafBot)"/>
  <g clip-path="url(#c317)"><text x="9.0" y="14.8" fill="#F3D06A" font-family="ui-monospace, SFMono-Regular, Menlo, Consolas, 'Courier New', monospace" font-size="17.4" font-weight="750" text-anchor="middle" dominant-baseline="middle">E</text></g>
  <rect x="0" y="13.3" width="18.0" height="1.4" fill="#000000"/>
  <rect x="0" y="13.6" width="18.0" height="0.8" fill="#262622"/>
  
</g>
<g transform="translate(1068.0 148.0)">
  <defs><clipPath id="c318"><rect width="18.0" height="28.0" rx="2.5"/></clipPath></defs>
  <rect width="18.0" height="28.0" rx="2.5" fill="#050504"/>
  <rect x="0.7" y="0.7" width="16.6" height="13.3" rx="2.5" fill="url(#leafTop)"/>
  <rect x="0.7" y="14.7" width="16.6" height="13.3" rx="2.5" fill="url(#leafBot)"/>
  <g clip-path="url(#c318)"><text x="9.0" y="14.8" fill="#F3D06A" font-family="ui-monospace, SFMono-Regular, Menlo, Consolas, 'Courier New', monospace" font-size="17.4" font-weight="750" text-anchor="middle" dominant-baseline="middle">N</text></g>
  <rect x="0" y="13.3" width="18.0" height="1.4" fill="#000000"/>
  <rect x="0" y="13.6" width="18.0" height="0.8" fill="#262622"/>
  
</g>
<g transform="translate(1088.0 148.0)">
  <defs><clipPath id="c319"><rect width="18.0" height="28.0" rx="2.5"/></clipPath></defs>
  <rect width="18.0" height="28.0" rx="2.5" fill="#050504"/>
  <rect x="0.7" y="0.7" width="16.6" height="13.3" rx="2.5" fill="url(#leafTop)"/>
  <rect x="0.7" y="14.7" width="16.6" height="13.3" rx="2.5" fill="url(#leafBot)"/>
  <g clip-path="url(#c319)"><text x="9.0" y="14.8" fill="#F3D06A" font-family="ui-monospace, SFMono-Regular, Menlo, Consolas, 'Courier New', monospace" font-size="17.4" font-weight="750" text-anchor="middle" dominant-baseline="middle">C</text></g>
  <rect x="0" y="13.3" width="18.0" height="1.4" fill="#000000"/>
  <rect x="0" y="13.6" width="18.0" height="0.8" fill="#262622"/>
  
</g>
<g transform="translate(1108.0 148.0)">
  <defs><clipPath id="c320"><rect width="18.0" height="28.0" rx="2.5"/></clipPath></defs>
  <rect width="18.0" height="28.0" rx="2.5" fill="#050504"/>
  <rect x="0.7" y="0.7" width="16.6" height="13.3" rx="2.5" fill="url(#leafTop)"/>
  <rect x="0.7" y="14.7" width="16.6" height="13.3" rx="2.5" fill="url(#leafBot)"/>
  <g clip-path="url(#c320)"><text x="9.0" y="14.8" fill="#F3D06A" font-family="ui-monospace, SFMono-Regular, Menlo, Consolas, 'Courier New', monospace" font-size="17.4" font-weight="750" text-anchor="middle" dominant-baseline="middle">E</text></g>
  <rect x="0" y="13.3" width="18.0" height="1.4" fill="#000000"/>
  <rect x="0" y="13.6" width="18.0" height="0.8" fill="#262622"/>
  
</g>
<text x="968.0" y="194.0" fill="#F4EDE0" font-family="ui-monospace, SFMono-Regular, Menlo, Consolas, 'Courier New', monospace" font-size="10" font-weight="700" text-anchor="start" letter-spacing="1.6">EVIDENCE</text>
<text x="968.0" y="210.0" fill="#8A8070" font-family="ui-monospace, SFMono-Regular, Menlo, Consolas, 'Courier New', monospace" font-size="11" font-weight="500" text-anchor="start">typed + raw card</text>
<path d="M240 162 H272" fill="none" stroke="#2A2A28" stroke-width="2.2" stroke-linecap="round"/>
<path d="M464 162 H496" fill="none" stroke="#2A2A28" stroke-width="2.2" stroke-linecap="round"/>
<path d="M688 162 C708 162 718 122 728 122" fill="none" stroke="#3D9B8F" stroke-width="2.2" stroke-linecap="round"/>
<path d="M688 162 C708 162 718 202 728 202" fill="none" stroke="#E06A3A" stroke-width="2.2" stroke-linecap="round"/>
<path d="M832 122 C900 122 940 162 968 162" fill="none" stroke="#C4A45A" stroke-width="2.2" stroke-linecap="round"/>
<path d="M850 202 C910 202 940 162 968 162" fill="none" stroke="#C4A45A" stroke-width="2.2" stroke-linecap="round"/>
<rect x="40" y="284" width="1120" height="132" rx="8" fill="#10100E" stroke="#2A2A28" stroke-width="1"/>
<rect x="40" y="284" width="5" height="132" rx="2" fill="url(#ember)"/>
<text x="58.0" y="312.0" fill="#F3D06A" font-family="ui-monospace, SFMono-Regular, Menlo, Consolas, 'Courier New', monospace" font-size="11" font-weight="700" text-anchor="start" letter-spacing="2.6">HOTELS</text>
<text x="140.0" y="312.0" fill="#F4EDE0" font-family="ui-monospace, SFMono-Regular, Menlo, Consolas, 'Courier New', monospace" font-size="13" font-weight="500" text-anchor="start">Agents get Google HTTP. The CLI still opens Booking when you want the evidence path.</text>
<text x="58.0" y="348.0" fill="#F3D06A" font-family="ui-monospace, SFMono-Regular, Menlo, Consolas, 'Courier New', monospace" font-size="11" font-weight="700" text-anchor="start" letter-spacing="2.6">STATE</text>
<text x="140.0" y="348.0" fill="#F4EDE0" font-family="ui-monospace, SFMono-Regular, Menlo, Consolas, 'Courier New', monospace" font-size="13" font-weight="500" text-anchor="start">Cookies stay in VIAJANTE_STATE_DIR. Sweep miss may fall back to detail once. Never a second browser hammer.</text>
<text x="58.0" y="384.0" fill="#F3D06A" font-family="ui-monospace, SFMono-Regular, Menlo, Consolas, 'Courier New', monospace" font-size="11" font-weight="700" text-anchor="start" letter-spacing="2.6">PACE</text>
<text x="140.0" y="384.0" fill="#F4EDE0" font-family="ui-monospace, SFMono-Regular, Menlo, Consolas, 'Courier New', monospace" font-size="13" font-weight="500" text-anchor="start">Sweep inter-query delay is 0. Detail sleeps 4.5 to 6 seconds on purpose. Nothing in parallel.</text>
</svg>
